<svg height="512" viewBox="0 0 36 60" width="512" xmlns="http://www.w3.org/2000/svg"><g id="Page-1" fill="none" fill-rule="evenodd"><g id="033---Apps" fill="rgb(0,0,0)" fill-rule="nonzero"><path id="Shape" d="m32 0h-28c-2.209139 0-4 1.790861-4 4v52c0 2.209139 1.790861 4 4 4h28c2.209139 0 4-1.790861 4-4v-52c0-2.209139-1.790861-4-4-4zm-6.31 2-1.28 1.37c-.3666957.39030942-.874608.61724897-1.41.63h-9.9c-.5528207.00080487-1.081318-.2272453-1.46-.63l-1.33-1.37zm-23.69 2c0-1.1045695.8954305-2 2-2h3.57l2.56 2.74c.7573641.8055094 1.8143585 1.26160975 2.92 1.26h9.95c1.1056415.00160975 2.1626359-.4544906 2.92-1.26l2.51-2.74h3.57c1.1045695 0 2 .8954305 2 2v47c0 1.1045695-.8954305 2-2 2h-28c-1.1045695 0-2-.8954305-2-2zm30 54h-28c-1.1045695 0-2-.8954305-2-2v-1.56c.60399287.3635516 1.29504012.5570448 2 .56h28c.7049599-.0029552 1.3960071-.1964484 2-.56v1.56c0 1.1045695-.8954305 2-2 2z"/><path id="Shape" d="m9 28h6c1.1045695 0 2-.8954305 2-2v-6c0-1.1045695-.8954305-2-2-2h-6c-1.1045695 0-2 .8954305-2 2v6c0 1.1045695.8954305 2 2 2zm0-8h6v6h-6z"/><path id="Shape" d="m21 28h6c1.1045695 0 2-.8954305 2-2v-6c0-1.1045695-.8954305-2-2-2h-6c-1.1045695 0-2 .8954305-2 2v6c0 1.1045695.8954305 2 2 2zm0-8h6v6h-6z"/><path id="Shape" d="m9 40h6c1.1045695 0 2-.8954305 2-2v-6c0-1.1045695-.8954305-2-2-2h-6c-1.1045695 0-2 .8954305-2 2v6c0 1.1045695.8954305 2 2 2zm0-8h6v6h-6z"/><path id="Shape" d="m20 36h3v3c0 .5522847.4477153 1 1 1s1-.4477153 1-1v-3h3c.5522847 0 1-.4477153 1-1s-.4477153-1-1-1h-3v-3c0-.5522847-.4477153-1-1-1s-1 .4477153-1 1v3h-3c-.5522847 0-1 .4477153-1 1s.4477153 1 1 1z"/></g></g></svg>