<svg id="Capa_1" enable-background="new 0 0 512 512" height="512" viewBox="0 0 512 512" width="512" xmlns="http://www.w3.org/2000/svg"><g><g><path d="m322.63 406.206-6.02-45.149h-121.22l-6.02 45.149c-2.671 20.029-10.752 38.951-23.375 54.729l-.91 1.138h181.829l-.91-1.138c-12.622-15.778-20.704-34.7-23.374-54.729z" fill="#365e7d"/></g><g><path d="m7.5 17.602h497v343.455h-497z" fill="#d3effb"/></g><g><path d="m480.256 17.602h24.244v343.455h-24.244z" fill="#b1e4f9"/></g><g><path d="m126.699-36.947h258.602v432.35h-258.602z" fill="#90d8f9" transform="matrix(0 1 -1 0 435.228 -76.772)"/></g><g><g><path d="m296.406 157.004h60.61v32.325h-60.61z" fill="#df75a5" transform="matrix(0 1 -1 0 499.878 -153.545)"/></g><g><path d="m318.63 146.902h80.813v32.325h-80.813z" fill="#f6e266" transform="matrix(0 1 -1 0 522.102 -195.972)"/></g><g><path d="m340.854 136.801h101.016v32.325h-101.016z" fill="#e7a52e" transform="matrix(0 1 -1 0 544.325 -238.398)"/></g><g><path d="m363.077 126.699h121.219v32.325h-121.219z" fill="#8bc852" transform="matrix(0 1 -1 0 566.549 -280.825)"/></g></g><g><path d="m124.679 486.317v-16.163c0-4.463 3.618-8.081 8.081-8.081h246.48c4.463 0 8.081 3.618 8.081 8.081v16.163c0 4.463-3.618 8.081-8.081 8.081h-246.48c-4.463 0-8.081-3.618-8.081-8.081z" fill="#d3effb"/></g><g><path d="m379.24 462.073h-44.447c4.463 0 8.081 3.618 8.081 8.081v16.163c0 4.463-3.618 8.081-8.081 8.081h44.447c4.463 0 8.081-3.618 8.081-8.081v-16.163c0-4.463-3.618-8.081-8.081-8.081z" fill="#b1e4f9"/></g><g><path d="m330.752 167.106h258.602v24.244h-258.602z" fill="#75cef9" transform="matrix(0 1 -1 0 639.281 -280.825)"/></g><g><g><path d="m193.37 203.472v-71.306l-60.61-49.914-60.61 49.914v71.306z" fill="#d3effb"/></g></g><g><path d="m88.313 243.878h88.894c8.926 0 16.163 7.236 16.163 16.163 0 8.926-7.236 16.163-16.163 16.163h-88.894c-8.926 0-16.163-7.236-16.163-16.163 0-8.927 7.237-16.163 16.163-16.163z" fill="#4a80aa"/></g><g><path d="m148.923 243.878h28.285c8.926 0 16.163 7.236 16.163 16.163 0 8.926-7.236 16.163-16.163 16.163h-28.285c-8.926 0-16.163-7.236-16.163-16.163 0-8.927 7.236-16.163 16.163-16.163z" fill="#8bc852"/></g><g><path d="m504.5 10.1h-497c-4.143 0-7.5 3.357-7.5 7.5v343.46c0 4.143 3.357 7.5 7.5 7.5h179.323l-4.888 36.655c-2.396 17.974-9.48 34.988-20.499 49.355h-28.676c-8.591 0-15.58 6.989-15.58 15.58v16.17c0 8.591 6.989 15.58 15.58 15.58h246.48c8.591 0 15.58-6.989 15.58-15.58v-16.17c0-8.591-6.989-15.58-15.58-15.58h-28.677c-11.02-14.37-18.103-31.383-20.499-49.355l-4.888-36.655h75.394c4.143 0 7.5-3.357 7.5-7.5s-3.357-7.5-7.5-7.5h-385.57v-328.46h482v328.46h-61.43c-4.143 0-7.5 3.357-7.5 7.5s3.357 7.5 7.5 7.5h68.93c4.143 0 7.5-3.357 7.5-7.5v-343.46c0-4.143-3.357-7.5-7.5-7.5zm-189.305 397.097c2.251 16.885 8.121 33.029 17.123 47.373h-90.818c-4.143 0-7.5 3.357-7.5 7.5s3.357 7.5 7.5 7.5h137.74c.32 0 .58.26.58.58v16.17c0 .32-.26.58-.58.58h-246.48c-.32 0-.58-.26-.58-.58v-16.17c0-.32.26-.58.58-.58h73.74c4.143 0 7.5-3.357 7.5-7.5s-3.357-7.5-7.5-7.5h-26.818c9.002-14.343 14.872-30.487 17.122-47.373l5.152-38.638h108.086z"/><path d="m447.35 82.252c0-4.143-3.357-7.5-7.5-7.5h-32.325c-4.143 0-7.5 3.357-7.5 7.5v12.703h-24.825c-4.143 0-7.5 3.357-7.5 7.5v12.703h-24.825c-4.143 0-7.5 3.357-7.5 7.5v12.703h-24.825c-4.143 0-7.5 3.357-7.5 7.5v60.61c0 4.143 3.357 7.5 7.5 7.5h129.3c4.143 0 7.5-3.357 7.5-7.5zm-129.301 68.109h17.325v45.61h-17.325zm32.325-7.5v-12.703h17.325v65.813h-17.325zm32.325-20.203v-12.703h17.325v86.017h-17.325zm49.651 73.314h-17.325v-93.517-12.703h17.325z"/><path d="m126.5 42.43h-86.67c-4.143 0-7.5 3.357-7.5 7.5v258.6c0 4.143 3.357 7.5 7.5 7.5h432.34c4.143 0 7.5-3.357 7.5-7.5v-258.6c0-4.143-3.357-7.5-7.5-7.5h-310.67c-4.143 0-7.5 3.357-7.5 7.5s3.357 7.5 7.5 7.5h303.17v243.6h-417.34v-243.6h79.17c4.143 0 7.5-3.357 7.5-7.5s-3.357-7.5-7.5-7.5z"/><path d="m200.87 132.166c0-2.241-1.002-4.365-2.732-5.789l-60.61-49.914c-2.77-2.281-6.766-2.281-9.535 0l-60.609 49.914c-1.73 1.424-2.732 3.548-2.732 5.789v71.306c0 4.143 3.357 7.5 7.5 7.5h121.22c4.143 0 7.5-3.357 7.5-7.5v-71.306zm-15 63.806h-106.22v-60.267l53.109-43.737 53.11 43.737v60.267z"/><path d="m177.207 236.378h-88.894c-13.048 0-23.663 10.615-23.663 23.663 0 13.047 10.615 23.662 23.663 23.662h88.894c13.048 0 23.663-10.615 23.663-23.662 0-13.048-10.615-23.663-23.663-23.663zm-97.557 23.663c0-4.776 3.887-8.663 8.663-8.663h38.596c-1.06 2.685-1.65 5.606-1.65 8.663s.589 5.977 1.649 8.662h-38.595c-4.776 0-8.663-3.886-8.663-8.662zm97.557 8.662h-28.284c-4.776 0-8.663-3.886-8.663-8.662s3.887-8.663 8.663-8.663h28.284c4.776 0 8.663 3.887 8.663 8.663s-3.887 8.662-8.663 8.662z"/><path d="m225.695 210.972h52.528c4.143 0 7.5-3.357 7.5-7.5s-3.357-7.5-7.5-7.5h-52.528c-4.143 0-7.5 3.357-7.5 7.5s3.358 7.5 7.5 7.5z"/><path d="m225.695 178.646h52.528c4.143 0 7.5-3.357 7.5-7.5s-3.357-7.5-7.5-7.5h-52.528c-4.143 0-7.5 3.357-7.5 7.5s3.358 7.5 7.5 7.5z"/><path d="m225.695 146.321h52.528c4.143 0 7.5-3.357 7.5-7.5s-3.357-7.5-7.5-7.5h-52.528c-4.143 0-7.5 3.357-7.5 7.5s3.358 7.5 7.5 7.5z"/><path d="m225.695 113.996h52.528c4.143 0 7.5-3.357 7.5-7.5s-3.357-7.5-7.5-7.5h-52.528c-4.143 0-7.5 3.357-7.5 7.5s3.358 7.5 7.5 7.5z"/><path d="m439.85 268.703h-82.833c-4.143 0-7.5 3.357-7.5 7.5s3.357 7.5 7.5 7.5h82.833c4.143 0 7.5-3.357 7.5-7.5s-3.358-7.5-7.5-7.5z"/><path d="m439.85 236.378h-52.528c-4.143 0-7.5 3.357-7.5 7.5s3.357 7.5 7.5 7.5h52.528c4.143 0 7.5-3.357 7.5-7.5s-3.358-7.5-7.5-7.5z"/></g></g></svg>